<svg width="163.000000" height="54.000000" viewBox="0 0 163 54" fill="none" xmlns="http://www.w3.org/2000/svg" xmlns:xlink="http://www.w3.org/1999/xlink">
	<desc>
			Created with Pixso.
	</desc>
	<defs/>
	<path id="ItemHub" d="M2.87 8.81L6.82 8.81L6.82 35L2.87 35L2.87 8.81ZM82.66 35L78.7 35L78.7 8.81L82.66 8.81L82.66 20.19L95.71 20.19L95.71 8.81L99.68 8.81L99.68 35L95.71 35L95.71 23.58L82.66 23.58L82.66 35ZM130.56 35L126.82 35L126.82 8.81L130.65 8.81L130.65 18.54L130.88 18.54C131.55 17.33 132.87 15.11 136.52 15.11C141.25 15.11 144.76 18.85 144.76 25.21C144.76 31.57 141.31 35.38 136.55 35.38C132.98 35.38 131.57 33.19 130.88 31.94L130.56 31.94L130.56 35ZM17.41 15.36L21.43 15.36L21.43 18.43L17.41 18.43L17.41 29.23C17.41 31.44 18.52 31.85 19.76 31.85C20.38 31.85 20.84 31.73 21.1 31.68L21.79 34.85C21.34 35 20.53 35.24 19.31 35.25C16.3 35.31 13.57 33.59 13.58 30.02L13.58 18.43L10.71 18.43L10.71 15.36L13.58 15.36L13.58 10.66L17.41 10.66L17.41 15.36ZM42.09 30.08C41.22 33.28 38.2 35.39 33.91 35.39C28.12 35.39 24.57 31.4 24.57 25.3C24.57 19.27 28.17 15.11 33.65 15.11C38.09 15.11 42.34 17.87 42.34 24.98L42.34 26.33L28.37 26.33C28.48 30.11 30.67 32.24 33.95 32.24C36.12 32.24 37.78 31.29 38.48 29.43L42.09 30.08ZM50.41 35L46.59 35L46.59 15.36L50.26 15.36L50.26 18.55L50.5 18.55C51.33 16.4 53.25 15.11 55.84 15.11C58.47 15.11 60.27 16.41 61.13 18.55L61.33 18.55C62.28 16.46 64.41 15.11 67.23 15.11C70.78 15.11 73.28 17.34 73.28 21.83L73.28 35L69.47 35L69.47 22.19C69.47 19.53 67.8 18.4 65.79 18.4C63.29 18.4 61.85 20.12 61.85 22.48L61.85 35L58.03 35L58.03 21.94C58.03 19.81 56.57 18.4 54.44 18.4C52.27 18.4 50.41 20.24 50.41 22.89L50.41 35ZM112.95 31.77C115.09 31.77 117.57 30.19 117.56 26.85L117.56 15.36L121.39 15.36L121.39 35L117.63 35L117.63 31.59L117.43 31.59C116.52 33.69 114.51 35.25 111.56 35.25C107.79 35.25 105.12 32.72 105.12 27.85L105.12 15.36L108.94 15.36L108.94 27.39C108.94 30.06 110.57 31.77 112.95 31.77ZM33.67 18.26C30.56 18.26 28.54 20.68 28.39 23.46L38.59 23.46C38.58 20.46 36.63 18.26 33.67 18.26ZM135.7 18.35C132.36 18.35 130.57 21.07 130.57 25.18C130.57 29.31 132.41 32.12 135.7 32.12C139.11 32.12 140.9 29.12 140.9 25.18C140.9 21.28 139.16 18.35 135.7 18.35Z" fill="#000000" fill-opacity="1.000000" fill-rule="evenodd"/>
</svg>
